<svg xmlns="http://www.w3.org/2000/svg" width="1920" height="1080"><path d="M244,1255L-171,1256L387,1257Z" fill="#7a8ab5" stroke="#7a8ab5" stroke-width="1.51"/><path d="M828,1233L664,1238L1093,1254Z" fill="#4b76aa" stroke="#4b76aa" stroke-width="1.51"/><path d="M664,1238L551,1248L1093,1254Z" fill="#547aab" stroke="#547aab" stroke-width="1.51"/><path d="M551,1248L387,1257L1093,1254Z" fill="#5c7dac" stroke="#5c7dac" stroke-width="1.51"/><path d="M389,-175L820,-175L1508,-176Z" fill="#b5d4eb" stroke="#b5d4eb" stroke-width="1.51"/><path d="M820,-175L1082,-172L1508,-176Z" fill="#a7c9e5" stroke="#a7c9e5" stroke-width="1.51"/><path d="M1082,-172L1224,-159L1508,-176Z" fill="#a0c2e1" stroke="#a0c2e1" stroke-width="1.51"/><path d="M1386,1244L1241,1247L1667,1254Z" fill="#205b9a" stroke="#205b9a" stroke-width="1.51"/><path d="M1241,1247L1093,1254L1667,1254Z" fill="#26609d" stroke="#26609d" stroke-width="1.51"/><path d="M1508,-176L1657,-169L1936,-167Z" fill="#91a8d3" stroke="#91a8d3" stroke-width="1.51"/><path d="M1657,-169L1782,-145L1936,-167Z" fill="#8ea2ce" stroke="#8ea2ce" stroke-width="1.51"/><path d="M1794,1226L1667,1254L1952,1234Z" fill="#0c498e" stroke="#0c498e" stroke-width="1.51"/><path d="M1952,1234L1667,1254L2066,1244Z" fill="#094388" stroke="#094388" stroke-width="1.51"/><path d="M1956,1096L1952,1234L2066,1244Z" fill="#094287" stroke="#094287" stroke-width="1.51"/><path d="M1952,682L1954,828L2069,830Z" fill="#2664a3" stroke="#2664a3" stroke-width="1.51"/><path d="M1954,828L1930,956L2069,830Z" fill="#1d5da0" stroke="#1d5da0" stroke-width="1.51"/><path d="M1946,266L1953,415L2078,395Z" fill="#5d81b2" stroke="#5d81b2" stroke-width="1.51"/><path d="M2078,395L1953,415L2081,538Z" fill="#4f78ab" stroke="#4f78ab" stroke-width="1.51"/><path d="M1953,415L1939,528L2081,538Z" fill="#4a78ae" stroke="#4a78ae" stroke-width="1.51"/><path d="M1939,528L1952,682L2081,538Z" fill="#3e72ab" stroke="#3e72ab" stroke-width="1.51"/><path d="M1508,-176L1936,-167L2081,-171Z" fill="#8e9fcd" stroke="#8e9fcd" stroke-width="1.51"/><path d="M2069,830L1930,956L2084,967Z" fill="#18579a" stroke="#18579a" stroke-width="1.51"/><path d="M1930,956L1956,1096L2084,967Z" fill="#125297" stroke="#125297" stroke-width="1.51"/><path d="M2084,967L1956,1096L2090,1092Z" fill="#0e4c90" stroke="#0e4c90" stroke-width="1.51"/><path d="M1956,1096L2066,1244L2090,1092Z" fill="#094489" stroke="#094489" stroke-width="1.51"/><path d="M2081,538L1952,682L2091,667Z" fill="#376ca5" stroke="#376ca5" stroke-width="1.51"/><path d="M1952,682L2069,830L2091,667Z" fill="#2b66a1" stroke="#2b66a1" stroke-width="1.51"/><path d="M2069,830L2084,967L2091,667Z" fill="#225c99" stroke="#225c99" stroke-width="1.51"/><path d="M2084,967L2090,1092L2091,667Z" fill="#185595" stroke="#185595" stroke-width="1.51"/><path d="M1946,266L2078,395L2091,256Z" fill="#6281b0" stroke="#6281b0" stroke-width="1.51"/><path d="M2081,538L2091,667L2091,256Z" fill="#4873a6" stroke="#4873a6" stroke-width="1.51"/><path d="M2078,395L2081,538L2091,256Z" fill="#5679a9" stroke="#5679a9" stroke-width="1.51"/><path d="M2081,-171L1936,-167L2093,-22Z" fill="#8491ba" stroke="#8491ba" stroke-width="1.51"/><path d="M1936,-167L1923,-22L2093,-22Z" fill="#8293be" stroke="#8293be" stroke-width="1.51"/><path d="M1923,-22L1931,128L2093,-22Z" fill="#7c8fbc" stroke="#7c8fbc" stroke-width="1.51"/><path d="M1946,266L2091,256L2096,128Z" fill="#6b84b3" stroke="#6b84b3" stroke-width="1.51"/><path d="M1931,128L1946,266L2096,128Z" fill="#7189b9" stroke="#7189b9" stroke-width="1.51"/><path d="M2091,256L2091,667L2096,128Z" fill="#5b7ca9" stroke="#5b7ca9" stroke-width="1.51"/><path d="M2093,-22L1931,128L2096,128Z" fill="#7789b6" stroke="#7789b6" stroke-width="1.51"/><path d="M1530,1230L1386,1244L1667,1254Z" fill="#195799" stroke="#195799" stroke-width="1.51"/><path d="M1923,-22L1787,107L1931,128Z" fill="#7d94c4" stroke="#7d94c4" stroke-width="1.51"/><path d="M1782,-145L1923,-22L1936,-167Z" fill="#899bc8" stroke="#899bc8" stroke-width="1.51"/><path d="M1814,537L1810,668L1939,528Z" fill="#417bb7" stroke="#417bb7" stroke-width="1.51"/><path d="M1814,411L1814,537L1939,528Z" fill="#4d81ba" stroke="#4d81ba" stroke-width="1.51"/><path d="M1931,128L1782,266L1946,266Z" fill="#708ec0" stroke="#708ec0" stroke-width="1.51"/><path d="M1782,266L1814,411L1946,266Z" fill="#668dbf" stroke="#668dbf" stroke-width="1.51"/><path d="M1815,1095L1794,1226L1952,1234Z" fill="#094b93" stroke="#094b93" stroke-width="1.51"/><path d="M1810,668L1791,804L1952,682Z" fill="#2f72b1" stroke="#2f72b1" stroke-width="1.51"/><path d="M1939,528L1810,668L1952,682Z" fill="#3a75b1" stroke="#3a75b1" stroke-width="1.51"/><path d="M1946,266L1814,411L1953,415Z" fill="#5f87b9" stroke="#5f87b9" stroke-width="1.51"/><path d="M1814,411L1939,528L1953,415Z" fill="#5281b7" stroke="#5281b7" stroke-width="1.51"/><path d="M1800,955L1930,956L1954,828Z" fill="#195fa5" stroke="#195fa5" stroke-width="1.51"/><path d="M1791,804L1800,955L1954,828Z" fill="#2066ab" stroke="#2066ab" stroke-width="1.51"/><path d="M1952,682L1791,804L1954,828Z" fill="#286bab" stroke="#286bab" stroke-width="1.51"/><path d="M1815,1095L1952,1234L1956,1096Z" fill="#084c94" stroke="#084c94" stroke-width="1.51"/><path d="M1930,956L1815,1095L1956,1096Z" fill="#0e549c" stroke="#0e549c" stroke-width="1.51"/><path d="M1800,955L1815,1095L1930,956Z" fill="#125aa3" stroke="#125aa3" stroke-width="1.51"/><path d="M1782,-145L1785,-22L1923,-22Z" fill="#879ccb" stroke="#879ccb" stroke-width="1.51"/><path d="M1785,-22L1787,107L1923,-22Z" fill="#8199c9" stroke="#8199c9" stroke-width="1.51"/><path d="M1787,107L1782,266L1931,128Z" fill="#7793c6" stroke="#7793c6" stroke-width="1.51"/><path d="M1224,-159L1391,-150L1508,-176Z" fill="#9cbbde" stroke="#9cbbde" stroke-width="1.51"/><path d="M1652,114L1670,274L1782,266Z" fill="#7599ca" stroke="#7599ca" stroke-width="1.51"/><path d="M1670,274L1661,401L1782,266Z" fill="#6a95c6" stroke="#6a95c6" stroke-width="1.51"/><path d="M1652,114L1782,266L1787,107Z" fill="#7a99c9" stroke="#7a99c9" stroke-width="1.51"/><path d="M1655,821L1661,949L1791,804Z" fill="#246eb2" stroke="#246eb2" stroke-width="1.51"/><path d="M1791,804L1661,949L1800,955Z" fill="#1e68ae" stroke="#1e68ae" stroke-width="1.51"/><path d="M1661,949L1670,1116L1800,955Z" fill="#1861a9" stroke="#1861a9" stroke-width="1.51"/><path d="M1654,686L1791,804L1810,668Z" fill="#3077b5" stroke="#3077b5" stroke-width="1.51"/><path d="M1646,540L1654,686L1810,668Z" fill="#3e80bb" stroke="#3e80bb" stroke-width="1.51"/><path d="M1646,540L1810,668L1814,537Z" fill="#4280bb" stroke="#4280bb" stroke-width="1.51"/><path d="M1661,401L1646,540L1814,537Z" fill="#5089c0" stroke="#5089c0" stroke-width="1.51"/><path d="M1661,401L1814,537L1814,411Z" fill="#5589bf" stroke="#5589bf" stroke-width="1.51"/><path d="M1782,266L1661,401L1814,411Z" fill="#6390c2" stroke="#6390c2" stroke-width="1.51"/><path d="M1800,955L1670,1116L1815,1095Z" fill="#135ba4" stroke="#135ba4" stroke-width="1.51"/><path d="M1670,1116L1794,1226L1815,1095Z" fill="#0d539c" stroke="#0d539c" stroke-width="1.51"/><path d="M1785,-22L1651,-18L1787,107Z" fill="#849ecd" stroke="#849ecd" stroke-width="1.51"/><path d="M1782,-145L1651,-18L1785,-22Z" fill="#89a2ce" stroke="#89a2ce" stroke-width="1.51"/><path d="M1651,-18L1652,114L1787,107Z" fill="#829fce" stroke="#829fce" stroke-width="1.51"/><path d="M1654,686L1655,821L1791,804Z" fill="#2d76b6" stroke="#2d76b6" stroke-width="1.51"/><path d="M1670,1116L1667,1254L1794,1226Z" fill="#105197" stroke="#105197" stroke-width="1.51"/><path d="M1657,-169L1651,-18L1782,-145Z" fill="#8ea6d1" stroke="#8ea6d1" stroke-width="1.51"/><path d="M971,1234L828,1233L1093,1254Z" fill="#4172a8" stroke="#4172a8" stroke-width="1.51"/><path d="M1651,-18L1528,-5L1652,114Z" fill="#87a6d2" stroke="#87a6d2" stroke-width="1.51"/><path d="M1515,135L1512,246L1652,114Z" fill="#7ea3d2" stroke="#7ea3d2" stroke-width="1.51"/><path d="M1646,540L1536,540L1654,686Z" fill="#4488c1" stroke="#4488c1" stroke-width="1.51"/><path d="M1536,540L1526,685L1654,686Z" fill="#4087c1" stroke="#4087c1" stroke-width="1.51"/><path d="M1654,686L1526,685L1655,821Z" fill="#327ebb" stroke="#327ebb" stroke-width="1.51"/><path d="M1526,685L1514,828L1655,821Z" fill="#2f7dbb" stroke="#2f7dbb" stroke-width="1.51"/><path d="M1528,-5L1651,-18L1657,-169Z" fill="#8ca9d4" stroke="#8ca9d4" stroke-width="1.51"/><path d="M1508,-176L1528,-5L1657,-169Z" fill="#91aed7" stroke="#91aed7" stroke-width="1.51"/><path d="M1502,951L1531,1112L1661,949Z" fill="#1d6aaf" stroke="#1d6aaf" stroke-width="1.51"/><path d="M1655,821L1514,828L1661,949Z" fill="#2673b5" stroke="#2673b5" stroke-width="1.51"/><path d="M1514,828L1502,951L1661,949Z" fill="#2372b6" stroke="#2372b6" stroke-width="1.51"/><path d="M1536,540L1646,540L1661,401Z" fill="#528ec5" stroke="#528ec5" stroke-width="1.51"/><path d="M1506,401L1536,540L1661,401Z" fill="#5b94c8" stroke="#5b94c8" stroke-width="1.51"/><path d="M1661,949L1531,1112L1670,1116Z" fill="#1862a9" stroke="#1862a9" stroke-width="1.51"/><path d="M1530,1230L1667,1254L1670,1116Z" fill="#14569b" stroke="#14569b" stroke-width="1.51"/><path d="M1531,1112L1530,1230L1670,1116Z" fill="#165da3" stroke="#165da3" stroke-width="1.51"/><path d="M1506,401L1661,401L1670,274Z" fill="#6698c8" stroke="#6698c8" stroke-width="1.51"/><path d="M1512,246L1506,401L1670,274Z" fill="#6e9dcc" stroke="#6e9dcc" stroke-width="1.51"/><path d="M1652,114L1512,246L1670,274Z" fill="#789fce" stroke="#789fce" stroke-width="1.51"/><path d="M1528,-5L1515,135L1652,114Z" fill="#84a6d3" stroke="#84a6d3" stroke-width="1.51"/><path d="M1379,944L1364,1103L1502,951Z" fill="#2872b4" stroke="#2872b4" stroke-width="1.51"/><path d="M1368,251L1380,413L1506,401Z" fill="#6da4cf" stroke="#6da4cf" stroke-width="1.51"/><path d="M1380,413L1396,553L1506,401Z" fill="#5e9ccc" stroke="#5e9ccc" stroke-width="1.51"/><path d="M1368,251L1506,401L1512,246Z" fill="#72a3cf" stroke="#72a3cf" stroke-width="1.51"/><path d="M1385,-8L1364,120L1515,135Z" fill="#89afd8" stroke="#89afd8" stroke-width="1.51"/><path d="M1380,809L1514,828L1526,685Z" fill="#3482be" stroke="#3482be" stroke-width="1.51"/><path d="M1390,675L1380,809L1526,685Z" fill="#3b88c2" stroke="#3b88c2" stroke-width="1.51"/><path d="M1396,553L1390,675L1526,685Z" fill="#458fc5" stroke="#458fc5" stroke-width="1.51"/><path d="M1508,-176L1391,-150L1528,-5Z" fill="#94b3da" stroke="#94b3da" stroke-width="1.51"/><path d="M1391,-150L1385,-8L1528,-5Z" fill="#92b3da" stroke="#92b3da" stroke-width="1.51"/><path d="M1385,-8L1515,135L1528,-5Z" fill="#8aadd7" stroke="#8aadd7" stroke-width="1.51"/><path d="M1502,951L1364,1103L1531,1112Z" fill="#226baf" stroke="#226baf" stroke-width="1.51"/><path d="M1386,1244L1530,1230L1531,1112Z" fill="#1d5da0" stroke="#1d5da0" stroke-width="1.51"/><path d="M1364,1103L1386,1244L1531,1112Z" fill="#2164a7" stroke="#2164a7" stroke-width="1.51"/><path d="M1396,553L1526,685L1536,540Z" fill="#498fc6" stroke="#498fc6" stroke-width="1.51"/><path d="M1506,401L1396,553L1536,540Z" fill="#5696c9" stroke="#5696c9" stroke-width="1.51"/><path d="M1379,944L1502,951L1514,828Z" fill="#2977b9" stroke="#2977b9" stroke-width="1.51"/><path d="M1368,251L1512,246L1515,135Z" fill="#7da7d3" stroke="#7da7d3" stroke-width="1.51"/><path d="M1380,809L1379,944L1514,828Z" fill="#307dbc" stroke="#307dbc" stroke-width="1.51"/><path d="M1364,120L1368,251L1515,135Z" fill="#83acd6" stroke="#83acd6" stroke-width="1.51"/><path d="M389,-175L552,-147L820,-175Z" fill="#cce2f0" stroke="#cce2f0" stroke-width="1.51"/><path d="M1254,1098L1241,1247L1364,1103Z" fill="#2a6cac" stroke="#2a6cac" stroke-width="1.51"/><path d="M1226,248L1246,411L1368,251Z" fill="#79aed5" stroke="#79aed5" stroke-width="1.51"/><path d="M1254,1098L1364,1103L1379,944Z" fill="#2a73b3" stroke="#2a73b3" stroke-width="1.51"/><path d="M1229,946L1254,1098L1379,944Z" fill="#2f7ab8" stroke="#2f7ab8" stroke-width="1.51"/><path d="M1234,833L1379,944L1380,809Z" fill="#3583bf" stroke="#3583bf" stroke-width="1.51"/><path d="M1368,251L1246,411L1380,413Z" fill="#70a8d1" stroke="#70a8d1" stroke-width="1.51"/><path d="M1246,411L1254,541L1380,413Z" fill="#64a4d0" stroke="#64a4d0" stroke-width="1.51"/><path d="M1244,-11L1364,120L1385,-8Z" fill="#90b6db" stroke="#90b6db" stroke-width="1.51"/><path d="M1364,1103L1241,1247L1386,1244Z" fill="#2765a4" stroke="#2765a4" stroke-width="1.51"/><path d="M1253,680L1380,809L1390,675Z" fill="#408ec4" stroke="#408ec4" stroke-width="1.51"/><path d="M1254,541L1253,680L1390,675Z" fill="#4c96c9" stroke="#4c96c9" stroke-width="1.51"/><path d="M1244,-11L1385,-8L1391,-150Z" fill="#95badd" stroke="#95badd" stroke-width="1.51"/><path d="M1224,-159L1244,-11L1391,-150Z" fill="#9bbfdf" stroke="#9bbfdf" stroke-width="1.51"/><path d="M1254,541L1390,675L1396,553Z" fill="#4f97ca" stroke="#4f97ca" stroke-width="1.51"/><path d="M1380,413L1254,541L1396,553Z" fill="#5b9dcd" stroke="#5b9dcd" stroke-width="1.51"/><path d="M1364,120L1239,124L1368,251Z" fill="#87b2d8" stroke="#87b2d8" stroke-width="1.51"/><path d="M1234,833L1229,946L1379,944Z" fill="#3481be" stroke="#3481be" stroke-width="1.51"/><path d="M1253,680L1234,833L1380,809Z" fill="#3e8cc3" stroke="#3e8cc3" stroke-width="1.51"/><path d="M1244,-11L1239,124L1364,120Z" fill="#8fb7dc" stroke="#8fb7dc" stroke-width="1.51"/><path d="M1239,124L1226,248L1368,251Z" fill="#84b2d8" stroke="#84b2d8" stroke-width="1.51"/><path d="M820,-175L949,-151L1082,-172Z" fill="#b1d2e9" stroke="#b1d2e9" stroke-width="1.51"/><path d="M1091,258L1100,383L1226,248Z" fill="#81b6d9" stroke="#81b6d9" stroke-width="1.51"/><path d="M1083,131L1226,248L1239,124Z" fill="#8db9dc" stroke="#8db9dc" stroke-width="1.51"/><path d="M1096,-8L1083,131L1239,124Z" fill="#96bedf" stroke="#96bedf" stroke-width="1.51"/><path d="M1083,1116L1093,1254L1241,1247Z" fill="#356ea8" stroke="#356ea8" stroke-width="1.51"/><path d="M1096,-8L1239,124L1244,-11Z" fill="#96bedf" stroke="#96bedf" stroke-width="1.51"/><path d="M1224,-159L1096,-8L1244,-11Z" fill="#9dc2e1" stroke="#9dc2e1" stroke-width="1.51"/><path d="M1226,248L1100,383L1246,411Z" fill="#78b1d6" stroke="#78b1d6" stroke-width="1.51"/><path d="M1100,383L1096,557L1246,411Z" fill="#6cabd4" stroke="#6cabd4" stroke-width="1.51"/><path d="M1103,813L1234,833L1253,680Z" fill="#4491c6" stroke="#4491c6" stroke-width="1.51"/><path d="M1088,670L1103,813L1253,680Z" fill="#4c98c9" stroke="#4c98c9" stroke-width="1.51"/><path d="M1096,557L1088,670L1253,680Z" fill="#569ecd" stroke="#569ecd" stroke-width="1.51"/><path d="M1229,946L1103,967L1254,1098Z" fill="#377eba" stroke="#377eba" stroke-width="1.51"/><path d="M1103,967L1083,1116L1254,1098Z" fill="#397ab7" stroke="#397ab7" stroke-width="1.51"/><path d="M1083,1116L1241,1247L1254,1098Z" fill="#3270ae" stroke="#3270ae" stroke-width="1.51"/><path d="M1096,557L1253,680L1254,541Z" fill="#569ecd" stroke="#569ecd" stroke-width="1.51"/><path d="M1246,411L1096,557L1254,541Z" fill="#62a5d1" stroke="#62a5d1" stroke-width="1.51"/><path d="M1082,-172L1096,-8L1224,-159Z" fill="#a3c6e4" stroke="#a3c6e4" stroke-width="1.51"/><path d="M1083,131L1091,258L1226,248Z" fill="#8bbadc" stroke="#8bbadc" stroke-width="1.51"/><path d="M1103,813L1103,967L1229,946Z" fill="#3f88c1" stroke="#3f88c1" stroke-width="1.51"/><path d="M1103,813L1229,946L1234,833Z" fill="#3e89c2" stroke="#3e89c2" stroke-width="1.51"/><path d="M-8,-165L126,-151L389,-175Z" fill="#e2edf8" stroke="#e2edf8" stroke-width="1.51"/><path d="M552,-147L694,-144L820,-175Z" fill="#c4deee" stroke="#c4deee" stroke-width="1.51"/><path d="M949,-151L959,-26L1082,-172Z" fill="#abcde7" stroke="#abcde7" stroke-width="1.51"/><path d="M952,683L969,824L1088,670Z" fill="#569ece" stroke="#569ece" stroke-width="1.51"/><path d="M1083,131L965,266L1091,258Z" fill="#8fbdde" stroke="#8fbdde" stroke-width="1.51"/><path d="M1083,1116L971,1234L1093,1254Z" fill="#3c72ab" stroke="#3c72ab" stroke-width="1.51"/><path d="M952,683L1088,670L1096,557Z" fill="#5ca3d0" stroke="#5ca3d0" stroke-width="1.51"/><path d="M958,524L952,683L1096,557Z" fill="#64a8d3" stroke="#64a8d3" stroke-width="1.51"/><path d="M1082,-172L959,-26L1096,-8Z" fill="#a5c9e5" stroke="#a5c9e5" stroke-width="1.51"/><path d="M948,105L1083,131L1096,-8Z" fill="#9cc4e2" stroke="#9cc4e2" stroke-width="1.51"/><path d="M959,-26L948,105L1096,-8Z" fill="#a1c8e4" stroke="#a1c8e4" stroke-width="1.51"/><path d="M1091,258L965,266L1100,383Z" fill="#86b9db" stroke="#86b9db" stroke-width="1.51"/><path d="M965,266L946,406L1100,383Z" fill="#83b9db" stroke="#83b9db" stroke-width="1.51"/><path d="M958,524L1096,557L1100,383Z" fill="#6dadd5" stroke="#6dadd5" stroke-width="1.51"/><path d="M946,406L958,524L1100,383Z" fill="#77b3d8" stroke="#77b3d8" stroke-width="1.51"/><path d="M972,1093L1083,1116L1103,967Z" fill="#407fba" stroke="#407fba" stroke-width="1.51"/><path d="M957,948L972,1093L1103,967Z" fill="#4586bf" stroke="#4586bf" stroke-width="1.51"/><path d="M969,824L957,948L1103,967Z" fill="#498dc5" stroke="#498dc5" stroke-width="1.51"/><path d="M969,824L1103,967L1103,813Z" fill="#4890c6" stroke="#4890c6" stroke-width="1.51"/><path d="M1088,670L969,824L1103,813Z" fill="#4f98ca" stroke="#4f98ca" stroke-width="1.51"/><path d="M972,1093L971,1234L1083,1116Z" fill="#4079b3" stroke="#4079b3" stroke-width="1.51"/><path d="M948,105L965,266L1083,131Z" fill="#97c2e1" stroke="#97c2e1" stroke-width="1.51"/><path d="M809,103L819,260L948,105Z" fill="#a3c9e4" stroke="#a3c9e4" stroke-width="1.51"/><path d="M812,689L835,824L952,683Z" fill="#61a4d0" stroke="#61a4d0" stroke-width="1.51"/><path d="M815,531L812,689L952,683Z" fill="#6babd4" stroke="#6babd4" stroke-width="1.51"/><path d="M803,963L832,1109L957,948Z" fill="#538cc2" stroke="#538cc2" stroke-width="1.51"/><path d="M815,531L952,683L958,524Z" fill="#6cadd6" stroke="#6cadd6" stroke-width="1.51"/><path d="M946,406L815,531L958,524Z" fill="#78b4d9" stroke="#78b4d9" stroke-width="1.51"/><path d="M949,-151L826,-27L959,-26Z" fill="#add0e8" stroke="#add0e8" stroke-width="1.51"/><path d="M826,-27L948,105L959,-26Z" fill="#a8cce7" stroke="#a8cce7" stroke-width="1.51"/><path d="M816,386L946,406L965,266Z" fill="#89bedd" stroke="#89bedd" stroke-width="1.51"/><path d="M819,260L816,386L965,266Z" fill="#92c2df" stroke="#92c2df" stroke-width="1.51"/><path d="M948,105L819,260L965,266Z" fill="#99c4e2" stroke="#99c4e2" stroke-width="1.51"/><path d="M835,824L957,948L969,824Z" fill="#5396c9" stroke="#5396c9" stroke-width="1.51"/><path d="M952,683L835,824L969,824Z" fill="#5a9ecd" stroke="#5a9ecd" stroke-width="1.51"/><path d="M832,1109L828,1233L971,1234Z" fill="#4b7bb1" stroke="#4b7bb1" stroke-width="1.51"/><path d="M832,1109L971,1234L972,1093Z" fill="#487db6" stroke="#487db6" stroke-width="1.51"/><path d="M957,948L832,1109L972,1093Z" fill="#4b86be" stroke="#4b86be" stroke-width="1.51"/><path d="M826,-27L809,103L948,105Z" fill="#a9cde7" stroke="#a9cde7" stroke-width="1.51"/><path d="M835,824L803,963L957,948Z" fill="#5694c8" stroke="#5694c8" stroke-width="1.51"/><path d="M816,386L815,531L946,406Z" fill="#82b9db" stroke="#82b9db" stroke-width="1.51"/><path d="M820,-175L826,-27L949,-151Z" fill="#b4d4ea" stroke="#b4d4ea" stroke-width="1.51"/><path d="M113,1232L-171,1256L244,1255Z" fill="#7e8db8" stroke="#7e8db8" stroke-width="1.51"/><path d="M691,809L689,955L803,963Z" fill="#659bcb" stroke="#659bcb" stroke-width="1.51"/><path d="M680,545L677,670L812,689Z" fill="#78b2d7" stroke="#78b2d7" stroke-width="1.51"/><path d="M680,545L812,689L815,531Z" fill="#78b3d8" stroke="#78b3d8" stroke-width="1.51"/><path d="M670,261L694,413L816,386Z" fill="#99c6e0" stroke="#99c6e0" stroke-width="1.51"/><path d="M694,413L815,531L816,386Z" fill="#89bddd" stroke="#89bddd" stroke-width="1.51"/><path d="M809,103L684,105L819,260Z" fill="#aacde6" stroke="#aacde6" stroke-width="1.51"/><path d="M684,105L670,261L819,260Z" fill="#a8cde5" stroke="#a8cde5" stroke-width="1.51"/><path d="M670,261L816,386L819,260Z" fill="#9bc7e1" stroke="#9bc7e1" stroke-width="1.51"/><path d="M696,-14L809,103L826,-27Z" fill="#b2d2e9" stroke="#b2d2e9" stroke-width="1.51"/><path d="M820,-175L694,-144L826,-27Z" fill="#bbd8eb" stroke="#bbd8eb" stroke-width="1.51"/><path d="M694,-144L696,-14L826,-27Z" fill="#bad8eb" stroke="#bad8eb" stroke-width="1.51"/><path d="M803,963L674,1086L832,1109Z" fill="#5b8cc0" stroke="#5b8cc0" stroke-width="1.51"/><path d="M664,1238L828,1233L832,1109Z" fill="#557fb2" stroke="#557fb2" stroke-width="1.51"/><path d="M674,1086L664,1238L832,1109Z" fill="#5b85ba" stroke="#5b85ba" stroke-width="1.51"/><path d="M812,689L691,809L835,824Z" fill="#67a5d0" stroke="#67a5d0" stroke-width="1.51"/><path d="M691,809L803,963L835,824Z" fill="#629ccc" stroke="#629ccc" stroke-width="1.51"/><path d="M689,955L674,1086L803,963Z" fill="#6192c5" stroke="#6192c5" stroke-width="1.51"/><path d="M694,413L680,545L815,531Z" fill="#85bcdc" stroke="#85bcdc" stroke-width="1.51"/><path d="M696,-14L684,105L809,103Z" fill="#b3d3e9" stroke="#b3d3e9" stroke-width="1.51"/><path d="M677,670L691,809L812,689Z" fill="#70abd3" stroke="#70abd3" stroke-width="1.51"/><path d="M-9,1229L-171,1256L113,1232Z" fill="#8290ba" stroke="#8290ba" stroke-width="1.51"/><path d="M532,268L536,413L670,261Z" fill="#a7cee4" stroke="#a7cee4" stroke-width="1.51"/><path d="M534,117L532,268L670,261Z" fill="#b2d2e8" stroke="#b2d2e8" stroke-width="1.51"/><path d="M551,1086L664,1238L674,1086Z" fill="#648abd" stroke="#648abd" stroke-width="1.51"/><path d="M531,970L551,1086L674,1086Z" fill="#6b93c5" stroke="#6b93c5" stroke-width="1.51"/><path d="M536,532L542,694L677,670Z" fill="#83b7da" stroke="#83b7da" stroke-width="1.51"/><path d="M542,694L548,805L677,670Z" fill="#7bb0d6" stroke="#7bb0d6" stroke-width="1.51"/><path d="M536,532L677,670L680,545Z" fill="#84bada" stroke="#84bada" stroke-width="1.51"/><path d="M536,413L536,532L680,545Z" fill="#91c1df" stroke="#91c1df" stroke-width="1.51"/><path d="M534,117L670,261L684,105Z" fill="#b4d3e9" stroke="#b4d3e9" stroke-width="1.51"/><path d="M531,970L674,1086L689,955Z" fill="#6996c7" stroke="#6996c7" stroke-width="1.51"/><path d="M548,805L531,970L689,955Z" fill="#70a0cd" stroke="#70a0cd" stroke-width="1.51"/><path d="M548,805L689,955L691,809Z" fill="#6fa3cf" stroke="#6fa3cf" stroke-width="1.51"/><path d="M677,670L548,805L691,809Z" fill="#74abd3" stroke="#74abd3" stroke-width="1.51"/><path d="M536,413L680,545L694,413Z" fill="#92c2df" stroke="#92c2df" stroke-width="1.51"/><path d="M670,261L536,413L694,413Z" fill="#9ecae1" stroke="#9ecae1" stroke-width="1.51"/><path d="M534,117L684,105L696,-14Z" fill="#b9d6ea" stroke="#b9d6ea" stroke-width="1.51"/><path d="M524,-37L534,117L696,-14Z" fill="#c0daed" stroke="#c0daed" stroke-width="1.51"/><path d="M694,-144L552,-147L696,-14Z" fill="#c4ddee" stroke="#c4ddee" stroke-width="1.51"/><path d="M552,-147L524,-37L696,-14Z" fill="#c5ddee" stroke="#c5ddee" stroke-width="1.51"/><path d="M551,1086L551,1248L664,1238Z" fill="#6585b6" stroke="#6585b6" stroke-width="1.51"/><path d="M126,-151L274,-145L389,-175Z" fill="#deeaf7" stroke="#deeaf7" stroke-width="1.51"/><path d="M389,-175L405,-28L524,-37Z" fill="#d0e3f2" stroke="#d0e3f2" stroke-width="1.51"/><path d="M405,830L388,946L531,970Z" fill="#7ba3d1" stroke="#7ba3d1" stroke-width="1.51"/><path d="M400,275L408,410L532,268Z" fill="#b0d2e7" stroke="#b0d2e7" stroke-width="1.51"/><path d="M399,133L400,275L532,268Z" fill="#bad6eb" stroke="#bad6eb" stroke-width="1.51"/><path d="M524,-37L405,-28L534,117Z" fill="#c7ddef" stroke="#c7ddef" stroke-width="1.51"/><path d="M405,-28L399,133L534,117Z" fill="#c6dcee" stroke="#c6dcee" stroke-width="1.51"/><path d="M399,133L532,268L534,117Z" fill="#bcd7eb" stroke="#bcd7eb" stroke-width="1.51"/><path d="M402,529L392,671L536,532Z" fill="#92bfdf" stroke="#92bfdf" stroke-width="1.51"/><path d="M408,410L402,529L536,532Z" fill="#9bc5e2" stroke="#9bc5e2" stroke-width="1.51"/><path d="M408,410L536,532L536,413Z" fill="#9dc7e2" stroke="#9dc7e2" stroke-width="1.51"/><path d="M532,268L408,410L536,413Z" fill="#a8cee4" stroke="#a8cee4" stroke-width="1.51"/><path d="M536,532L392,671L542,694Z" fill="#8abadc" stroke="#8abadc" stroke-width="1.51"/><path d="M392,671L405,830L542,694Z" fill="#84b3d9" stroke="#84b3d9" stroke-width="1.51"/><path d="M542,694L405,830L548,805Z" fill="#7eaed6" stroke="#7eaed6" stroke-width="1.51"/><path d="M405,830L531,970L548,805Z" fill="#79a6d2" stroke="#79a6d2" stroke-width="1.51"/><path d="M387,1113L387,1257L551,1248Z" fill="#6e88b7" stroke="#6e88b7" stroke-width="1.51"/><path d="M387,1113L551,1248L551,1086Z" fill="#6d8cbe" stroke="#6d8cbe" stroke-width="1.51"/><path d="M531,970L387,1113L551,1086Z" fill="#7195c6" stroke="#7195c6" stroke-width="1.51"/><path d="M389,-175L524,-37L552,-147Z" fill="#d0e3f1" stroke="#d0e3f1" stroke-width="1.51"/><path d="M388,946L387,1113L531,970Z" fill="#779bcb" stroke="#779bcb" stroke-width="1.51"/><path d="M261,1110L244,1255L387,1257Z" fill="#768bba" stroke="#768bba" stroke-width="1.51"/><path d="M261,1110L387,1257L387,1113Z" fill="#778fc0" stroke="#778fc0" stroke-width="1.51"/><path d="M261,1110L387,1113L388,946Z" fill="#7b99ca" stroke="#7b99ca" stroke-width="1.51"/><path d="M259,944L261,1110L388,946Z" fill="#7f9ece" stroke="#7f9ece" stroke-width="1.51"/><path d="M252,681L245,810L392,671Z" fill="#8fb9dc" stroke="#8fb9dc" stroke-width="1.51"/><path d="M273,539L252,681L392,671Z" fill="#96bfe0" stroke="#96bfe0" stroke-width="1.51"/><path d="M265,112L274,247L399,133Z" fill="#c7dcef" stroke="#c7dcef" stroke-width="1.51"/><path d="M399,133L274,247L400,275Z" fill="#c0d8ec" stroke="#c0d8ec" stroke-width="1.51"/><path d="M274,247L269,403L400,275Z" fill="#b8d5ea" stroke="#b8d5ea" stroke-width="1.51"/><path d="M273,539L392,671L402,529Z" fill="#98c1e1" stroke="#98c1e1" stroke-width="1.51"/><path d="M269,403L273,539L402,529Z" fill="#a3c9e5" stroke="#a3c9e5" stroke-width="1.51"/><path d="M259,944L388,946L405,830Z" fill="#81a6d3" stroke="#81a6d3" stroke-width="1.51"/><path d="M245,810L259,944L405,830Z" fill="#86abd6" stroke="#86abd6" stroke-width="1.51"/><path d="M392,671L245,810L405,830Z" fill="#89b3d9" stroke="#89b3d9" stroke-width="1.51"/><path d="M389,-175L274,-145L405,-28Z" fill="#d8e6f5" stroke="#d8e6f5" stroke-width="1.51"/><path d="M274,-145L270,-36L405,-28Z" fill="#d6e6f4" stroke="#d6e6f4" stroke-width="1.51"/><path d="M265,112L399,133L405,-28Z" fill="#ccdef1" stroke="#ccdef1" stroke-width="1.51"/><path d="M270,-36L265,112L405,-28Z" fill="#d1e2f2" stroke="#d1e2f2" stroke-width="1.51"/><path d="M269,403L402,529L408,410Z" fill="#a6cbe5" stroke="#a6cbe5" stroke-width="1.51"/><path d="M400,275L269,403L408,410Z" fill="#b0d1e7" stroke="#b0d1e7" stroke-width="1.51"/><path d="M119,693L245,810L252,681Z" fill="#92bbdd" stroke="#92bbdd" stroke-width="1.51"/><path d="M103,535L119,693L252,681Z" fill="#9cc2e2" stroke="#9cc2e2" stroke-width="1.51"/><path d="M245,810L112,944L259,944Z" fill="#88abd5" stroke="#88abd5" stroke-width="1.51"/><path d="M112,944L133,1093L259,944Z" fill="#85a3d0" stroke="#85a3d0" stroke-width="1.51"/><path d="M113,1232L244,1255L261,1110Z" fill="#7b8fbc" stroke="#7b8fbc" stroke-width="1.51"/><path d="M133,1093L113,1232L261,1110Z" fill="#7f95c4" stroke="#7f95c4" stroke-width="1.51"/><path d="M259,944L133,1093L261,1110Z" fill="#819ccc" stroke="#819ccc" stroke-width="1.51"/><path d="M135,-24L105,111L265,112Z" fill="#d4e4f4" stroke="#d4e4f4" stroke-width="1.51"/><path d="M105,111L119,257L265,112Z" fill="#cee0f2" stroke="#cee0f2" stroke-width="1.51"/><path d="M110,389L103,535L269,403Z" fill="#b0d1e8" stroke="#b0d1e8" stroke-width="1.51"/><path d="M119,257L110,389L269,403Z" fill="#bad8ea" stroke="#bad8ea" stroke-width="1.51"/><path d="M135,-24L265,112L270,-36Z" fill="#d4e4f4" stroke="#d4e4f4" stroke-width="1.51"/><path d="M126,-151L135,-24L270,-36Z" fill="#dce9f6" stroke="#dce9f6" stroke-width="1.51"/><path d="M269,403L103,535L273,539Z" fill="#a7cce6" stroke="#a7cce6" stroke-width="1.51"/><path d="M103,535L252,681L273,539Z" fill="#9ec5e3" stroke="#9ec5e3" stroke-width="1.51"/><path d="M119,257L269,403L274,247Z" fill="#bdd8eb" stroke="#bdd8eb" stroke-width="1.51"/><path d="M265,112L119,257L274,247Z" fill="#c7ddef" stroke="#c7ddef" stroke-width="1.51"/><path d="M126,-151L270,-36L274,-145Z" fill="#ddeaf7" stroke="#ddeaf7" stroke-width="1.51"/><path d="M103,815L112,944L245,810Z" fill="#8db0d8" stroke="#8db0d8" stroke-width="1.51"/><path d="M119,693L103,815L245,810Z" fill="#91b7dc" stroke="#91b7dc" stroke-width="1.51"/><path d="M-14,402L103,535L110,389Z" fill="#b3d3e9" stroke="#b3d3e9" stroke-width="1.51"/><path d="M103,815L-12,825L112,944Z" fill="#90b2d9" stroke="#90b2d9" stroke-width="1.51"/><path d="M-27,945L-35,1105L112,944Z" fill="#8ca6d2" stroke="#8ca6d2" stroke-width="1.51"/><path d="M103,535L-15,662L119,693Z" fill="#a0c5e3" stroke="#a0c5e3" stroke-width="1.51"/><path d="M105,111L-14,129L119,257Z" fill="#d1e2f3" stroke="#d1e2f3" stroke-width="1.51"/><path d="M-14,129L-33,243L119,257Z" fill="#cfe1f1" stroke="#cfe1f1" stroke-width="1.51"/><path d="M-14,402L110,389L119,257Z" fill="#bedaec" stroke="#bedaec" stroke-width="1.51"/><path d="M-33,243L-14,402L119,257Z" fill="#c5ddee" stroke="#c5ddee" stroke-width="1.51"/><path d="M-8,-165L-5,-37L126,-151Z" fill="#e5eff9" stroke="#e5eff9" stroke-width="1.51"/><path d="M112,944L-35,1105L133,1093Z" fill="#87a0ce" stroke="#87a0ce" stroke-width="1.51"/><path d="M-9,1229L113,1232L133,1093Z" fill="#8193c0" stroke="#8193c0" stroke-width="1.51"/><path d="M-35,1105L-9,1229L133,1093Z" fill="#8599c6" stroke="#8599c6" stroke-width="1.51"/><path d="M126,-151L-5,-37L135,-24Z" fill="#e0ecf8" stroke="#e0ecf8" stroke-width="1.51"/><path d="M-5,-37L105,111L135,-24Z" fill="#dae8f6" stroke="#dae8f6" stroke-width="1.51"/><path d="M-12,825L103,815L119,693Z" fill="#95b9dd" stroke="#95b9dd" stroke-width="1.51"/><path d="M-28,548L-15,662L103,535Z" fill="#a6cae6" stroke="#a6cae6" stroke-width="1.51"/><path d="M-5,-37L-14,129L105,111Z" fill="#d9e7f6" stroke="#d9e7f6" stroke-width="1.51"/><path d="M-12,825L-27,945L112,944Z" fill="#90aed8" stroke="#90aed8" stroke-width="1.51"/><path d="M-15,662L-12,825L119,693Z" fill="#99bfdf" stroke="#99bfdf" stroke-width="1.51"/><path d="M-14,402L-28,548L103,535Z" fill="#afd1e9" stroke="#afd1e9" stroke-width="1.51"/><path d="M-162,1096L-171,1256L-35,1105Z" fill="#8b9bc7" stroke="#8b9bc7" stroke-width="1.51"/><path d="M-173,963L-162,1096L-35,1105Z" fill="#90a4d0" stroke="#90a4d0" stroke-width="1.51"/><path d="M-155,273L-149,392L-33,243Z" fill="#cbe1f0" stroke="#cbe1f0" stroke-width="1.51"/><path d="M-143,531L-175,664L-28,548Z" fill="#accee8" stroke="#accee8" stroke-width="1.51"/><path d="M-173,963L-35,1105L-27,945Z" fill="#90a8d3" stroke="#90a8d3" stroke-width="1.51"/><path d="M-28,548L-175,664L-15,662Z" fill="#a7cae5" stroke="#a7cae5" stroke-width="1.51"/><path d="M-175,664L-154,819L-15,662Z" fill="#a1c4e2" stroke="#a1c4e2" stroke-width="1.51"/><path d="M-33,243L-149,392L-14,402Z" fill="#c4deee" stroke="#c4deee" stroke-width="1.51"/><path d="M-143,531L-28,548L-14,402Z" fill="#b3d3ea" stroke="#b3d3ea" stroke-width="1.51"/><path d="M-149,392L-143,531L-14,402Z" fill="#bad8ec" stroke="#bad8ec" stroke-width="1.51"/><path d="M-158,123L-33,243L-14,129Z" fill="#d7e6f5" stroke="#d7e6f5" stroke-width="1.51"/><path d="M-145,-26L-158,123L-14,129Z" fill="#dfebf7" stroke="#dfebf7" stroke-width="1.51"/><path d="M-15,662L-154,819L-12,825Z" fill="#9bbedf" stroke="#9bbedf" stroke-width="1.51"/><path d="M-154,819L-27,945L-12,825Z" fill="#96b4db" stroke="#96b4db" stroke-width="1.51"/><path d="M-35,1105L-171,1256L-9,1229Z" fill="#8695c0" stroke="#8695c0" stroke-width="1.51"/><path d="M-175,-143L-145,-26L-8,-165Z" fill="#ebf2fb" stroke="#ebf2fb" stroke-width="1.51"/><path d="M-8,-165L-145,-26L-5,-37Z" fill="#e6effa" stroke="#e6effa" stroke-width="1.51"/><path d="M-145,-26L-14,129L-5,-37Z" fill="#e0ecf8" stroke="#e0ecf8" stroke-width="1.51"/><path d="M-154,819L-173,963L-27,945Z" fill="#96b2d9" stroke="#96b2d9" stroke-width="1.51"/><path d="M-158,123L-155,273L-33,243Z" fill="#d4e5f4" stroke="#d4e5f4" stroke-width="1.51"/><path d="M-175,-143L-158,123L-145,-26Z" fill="#e6f0fa" stroke="#e6f0fa" stroke-width="1.51"/><path d="M-149,392L-175,664L-143,531Z" fill="#b3d3ea" stroke="#b3d3ea" stroke-width="1.51"/><path d="M-155,273L-175,664L-149,392Z" fill="#bdd9ed" stroke="#bdd9ed" stroke-width="1.51"/><path d="M-175,664L-173,963L-154,819Z" fill="#9dbcde" stroke="#9dbcde" stroke-width="1.51"/><path d="M-158,123L-175,664L-155,273Z" fill="#c8e0ef" stroke="#c8e0ef" stroke-width="1.51"/><path d="M-175,-143L-175,664L-158,123Z" fill="#d6e7f4" stroke="#d6e7f4" stroke-width="1.51"/><path d="M-173,963L-171,1256L-162,1096Z" fill="#90a1cd" stroke="#90a1cd" stroke-width="1.51"/></svg>