
      <svg height="714" width="1536" style="display: block;" version="1.1" xmlns="http://www.w3.org/2000/svg"><polygon style="fill:#ffffff;stroke:#ffffff;" points="1281,784 980,751 775,784" stroke-width="1" stroke-miterlimit="1" stroke-linejoin="round"></polygon><polygon style="fill:#adc6ff;stroke:#adc6ff;" points="1367,-73 970,-73 1187,-38" stroke-width="1" stroke-miterlimit="1" stroke-linejoin="round"></polygon><polygon style="fill:#9bb5ff;stroke:#9bb5ff;" points="1647,746 1611,724 1366,784" stroke-width="1" stroke-miterlimit="1" stroke-linejoin="round"></polygon><polygon style="fill:#c2dcff;stroke:#c2dcff;" points="1647,746 1579,662 1611,724" stroke-width="1" stroke-miterlimit="1" stroke-linejoin="round"></polygon><polygon style="fill:#87a1ff;stroke:#87a1ff;" points="1691,334 1628,245 1624,354" stroke-width="1" stroke-miterlimit="1" stroke-linejoin="round"></polygon><polygon style="fill:#829bff;stroke:#829bff;" points="1691,144 1574,181 1628,245" stroke-width="1" stroke-miterlimit="1" stroke-linejoin="round"></polygon><polygon style="fill:#819aff;stroke:#819aff;" points="1691,124 1574,181 1691,144" stroke-width="1" stroke-miterlimit="1" stroke-linejoin="round"></polygon><polygon style="fill:#87a1ff;stroke:#87a1ff;" points="1691,226 1691,144 1628,245" stroke-width="1" stroke-miterlimit="1" stroke-linejoin="round"></polygon><polygon style="fill:#839cff;stroke:#839cff;" points="1691,226 1628,245 1691,334" stroke-width="1" stroke-miterlimit="1" stroke-linejoin="round"></polygon><polygon style="fill:#7f99ff;stroke:#7f99ff;" points="1691,95 1574,181 1691,124" stroke-width="1" stroke-miterlimit="1" stroke-linejoin="round"></polygon><polygon style="fill:#8aa3ff;stroke:#8aa3ff;" points="1691,95 1495,17 1574,181" stroke-width="1" stroke-miterlimit="1" stroke-linejoin="round"></polygon><polygon style="fill:#90aaff;stroke:#90aaff;" points="1691,95 1537,-73 1495,17" stroke-width="1" stroke-miterlimit="1" stroke-linejoin="round"></polygon><polygon style="fill:#849dff;stroke:#849dff;" points="1691,469 1624,354 1588,443" stroke-width="1" stroke-miterlimit="1" stroke-linejoin="round"></polygon><polygon style="fill:#8aa3ff;stroke:#8aa3ff;" points="1691,469 1588,443 1618,520" stroke-width="1" stroke-miterlimit="1" stroke-linejoin="round"></polygon><polygon style="fill:#87a1ff;stroke:#87a1ff;" points="1691,509 1579,662 1647,746" stroke-width="1" stroke-miterlimit="1" stroke-linejoin="round"></polygon><polygon style="fill:#849eff;stroke:#849eff;" points="1691,509 1618,520 1579,662" stroke-width="1" stroke-miterlimit="1" stroke-linejoin="round"></polygon><polygon style="fill:#7791fa;stroke:#7791fa;" points="1691,509 1691,469 1618,520" stroke-width="1" stroke-miterlimit="1" stroke-linejoin="round"></polygon><polygon style="fill:#a0b9ff;stroke:#a0b9ff;" points="1691,784 1647,746 1366,784" stroke-width="1" stroke-miterlimit="1" stroke-linejoin="round"></polygon><polygon style="fill:#abc5ff;stroke:#abc5ff;" points="1691,784 1691,509 1647,746" stroke-width="1" stroke-miterlimit="1" stroke-linejoin="round"></polygon><polygon style="fill:#99b3ff;stroke:#99b3ff;" points="1691,356 1624,354 1691,469" stroke-width="1" stroke-miterlimit="1" stroke-linejoin="round"></polygon><polygon style="fill:#89a2ff;stroke:#89a2ff;" points="1691,356 1691,334 1624,354" stroke-width="1" stroke-miterlimit="1" stroke-linejoin="round"></polygon><polygon style="fill:#89a3ff;stroke:#89a3ff;" points="1691,-73 1537,-73 1691,95" stroke-width="1" stroke-miterlimit="1" stroke-linejoin="round"></polygon><polygon style="fill:#829cff;stroke:#829cff;" points="1628,245 1529,301 1624,354" stroke-width="1" stroke-miterlimit="1" stroke-linejoin="round"></polygon><polygon style="fill:#acc5ff;stroke:#acc5ff;" points="1611,724 1388,732 1366,784" stroke-width="1" stroke-miterlimit="1" stroke-linejoin="round"></polygon><polygon style="fill:#9cb5ff;stroke:#9cb5ff;" points="1618,520 1444,589 1579,662" stroke-width="1" stroke-miterlimit="1" stroke-linejoin="round"></polygon><polygon style="fill:#89a3ff;stroke:#89a3ff;" points="1628,245 1574,181 1529,301" stroke-width="1" stroke-miterlimit="1" stroke-linejoin="round"></polygon><polygon style="fill:#93adff;stroke:#93adff;" points="1624,354 1529,301 1588,443" stroke-width="1" stroke-miterlimit="1" stroke-linejoin="round"></polygon><polygon style="fill:#93acff;stroke:#93acff;" points="1618,520 1588,443 1444,589" stroke-width="1" stroke-miterlimit="1" stroke-linejoin="round"></polygon><polygon style="fill:#9ab3ff;stroke:#9ab3ff;" points="1611,724 1579,662 1388,732" stroke-width="1" stroke-miterlimit="1" stroke-linejoin="round"></polygon><polygon style="fill:#a4bdff;stroke:#a4bdff;" points="1588,443 1316,405 1444,589" stroke-width="1" stroke-miterlimit="1" stroke-linejoin="round"></polygon><polygon style="fill:#a6c0ff;stroke:#a6c0ff;" points="1588,443 1529,301 1383,304" stroke-width="1" stroke-miterlimit="1" stroke-linejoin="round"></polygon><polygon style="fill:#acc5ff;stroke:#acc5ff;" points="1588,443 1383,304 1316,405" stroke-width="1" stroke-miterlimit="1" stroke-linejoin="round"></polygon><polygon style="fill:#91aaff;stroke:#91aaff;" points="1574,181 1495,17 1373,195" stroke-width="1" stroke-miterlimit="1" stroke-linejoin="round"></polygon><polygon style="fill:#92acff;stroke:#92acff;" points="1574,181 1403,233 1529,301" stroke-width="1" stroke-miterlimit="1" stroke-linejoin="round"></polygon><polygon style="fill:#a4beff;stroke:#a4beff;" points="1579,662 1444,589 1388,732" stroke-width="1" stroke-miterlimit="1" stroke-linejoin="round"></polygon><polygon style="fill:#a8c2ff;stroke:#a8c2ff;" points="1574,181 1373,195 1403,233" stroke-width="1" stroke-miterlimit="1" stroke-linejoin="round"></polygon><polygon style="fill:#8ea7ff;stroke:#8ea7ff;" points="1495,17 1345,101 1373,195" stroke-width="1" stroke-miterlimit="1" stroke-linejoin="round"></polygon><polygon style="fill:#88a2ff;stroke:#88a2ff;" points="1537,-73 1407,-73 1495,17" stroke-width="1" stroke-miterlimit="1" stroke-linejoin="round"></polygon><polygon style="fill:#9eb8ff;stroke:#9eb8ff;" points="1529,301 1403,233 1383,304" stroke-width="1" stroke-miterlimit="1" stroke-linejoin="round"></polygon><polygon style="fill:#b5cfff;stroke:#b5cfff;" points="1444,589 1357,656 1388,732" stroke-width="1" stroke-miterlimit="1" stroke-linejoin="round"></polygon><polygon style="fill:#86a0ff;stroke:#86a0ff;" points="1495,17 1407,-73 1345,101" stroke-width="1" stroke-miterlimit="1" stroke-linejoin="round"></polygon><polygon style="fill:#f3ffff;stroke:#f3ffff;" points="1281,784 1061,734 980,751" stroke-width="1" stroke-miterlimit="1" stroke-linejoin="round"></polygon><polygon style="fill:#99b2ff;stroke:#99b2ff;" points="1407,-73 1367,-73 1345,101" stroke-width="1" stroke-miterlimit="1" stroke-linejoin="round"></polygon><polygon style="fill:#bcd5ff;stroke:#bcd5ff;" points="1444,589 1225,594 1357,656" stroke-width="1" stroke-miterlimit="1" stroke-linejoin="round"></polygon><polygon style="fill:#bad4ff;stroke:#bad4ff;" points="1444,589 1316,405 1225,594" stroke-width="1" stroke-miterlimit="1" stroke-linejoin="round"></polygon><polygon style="fill:#aac4ff;stroke:#aac4ff;" points="508,784 262,749 -79,784" stroke-width="1" stroke-miterlimit="1" stroke-linejoin="round"></polygon><polygon style="fill:#c6e0ff;stroke:#c6e0ff;" points="1316,405 1197,521 1225,594" stroke-width="1" stroke-miterlimit="1" stroke-linejoin="round"></polygon><polygon style="fill:#93acff;stroke:#93acff;" points="1403,233 1373,195 1383,304" stroke-width="1" stroke-miterlimit="1" stroke-linejoin="round"></polygon><polygon style="fill:#97b1ff;stroke:#97b1ff;" points="1367,-73 1217,89 1345,101" stroke-width="1" stroke-miterlimit="1" stroke-linejoin="round"></polygon><polygon style="fill:#91aaff;stroke:#91aaff;" points="1367,-73 1187,-38 1217,89" stroke-width="1" stroke-miterlimit="1" stroke-linejoin="round"></polygon><polygon style="fill:#a3bdff;stroke:#a3bdff;" points="1383,304 1373,195 1125,184" stroke-width="1" stroke-miterlimit="1" stroke-linejoin="round"></polygon><polygon style="fill:#a8c1ff;stroke:#a8c1ff;" points="1388,732 1281,784 1366,784" stroke-width="1" stroke-miterlimit="1" stroke-linejoin="round"></polygon><polygon style="fill:#b3ccff;stroke:#b3ccff;" points="1388,732 1357,656 1281,784" stroke-width="1" stroke-miterlimit="1" stroke-linejoin="round"></polygon><polygon style="fill:#b6d0ff;stroke:#b6d0ff;" points="1383,304 1125,184 1316,405" stroke-width="1" stroke-miterlimit="1" stroke-linejoin="round"></polygon><polygon style="fill:#6982eb;stroke:#6982eb;" points="1217,89 1187,-38 1202,75" stroke-width="1" stroke-miterlimit="1" stroke-linejoin="round"></polygon><polygon style="fill:#97b0ff;stroke:#97b0ff;" points="1373,195 1345,101 1217,89" stroke-width="1" stroke-miterlimit="1" stroke-linejoin="round"></polygon><polygon style="fill:#a5beff;stroke:#a5beff;" points="1373,195 1217,89 1125,184" stroke-width="1" stroke-miterlimit="1" stroke-linejoin="round"></polygon><polygon style="fill:#cde6ff;stroke:#cde6ff;" points="1357,656 1225,594 1281,784" stroke-width="1" stroke-miterlimit="1" stroke-linejoin="round"></polygon><polygon style="fill:#daf3ff;stroke:#daf3ff;" points="1281,784 1225,594 1123,649" stroke-width="1" stroke-miterlimit="1" stroke-linejoin="round"></polygon><polygon style="fill:#d0e9ff;stroke:#d0e9ff;" points="1316,405 1125,184 1083,216" stroke-width="1" stroke-miterlimit="1" stroke-linejoin="round"></polygon><polygon style="fill:#d7f1ff;stroke:#d7f1ff;" points="1316,405 1080,466 1197,521" stroke-width="1" stroke-miterlimit="1" stroke-linejoin="round"></polygon><polygon style="fill:#d0eaff;stroke:#d0eaff;" points="1316,405 1083,216 1080,466" stroke-width="1" stroke-miterlimit="1" stroke-linejoin="round"></polygon><polygon style="fill:#e8ffff;stroke:#e8ffff;" points="1281,784 1123,649 1061,734" stroke-width="1" stroke-miterlimit="1" stroke-linejoin="round"></polygon><polygon style="fill:#9fb9ff;stroke:#9fb9ff;" points="1202,75 1187,-38 1144,32" stroke-width="1" stroke-miterlimit="1" stroke-linejoin="round"></polygon><polygon style="fill:#cde6ff;stroke:#cde6ff;" points="1217,89 1202,75 1124,97" stroke-width="1" stroke-miterlimit="1" stroke-linejoin="round"></polygon><polygon style="fill:#a4beff;stroke:#a4beff;" points="1217,89 1124,97 1125,184" stroke-width="1" stroke-miterlimit="1" stroke-linejoin="round"></polygon><polygon style="fill:#daf4ff;stroke:#daf4ff;" points="1225,594 1197,521 1116,599" stroke-width="1" stroke-miterlimit="1" stroke-linejoin="round"></polygon><polygon style="fill:#e7ffff;stroke:#e7ffff;" points="1225,594 1116,599 1123,649" stroke-width="1" stroke-miterlimit="1" stroke-linejoin="round"></polygon><polygon style="fill:#d6f0ff;stroke:#d6f0ff;" points="1083,216 988,268 1080,466" stroke-width="1" stroke-miterlimit="1" stroke-linejoin="round"></polygon><polygon style="fill:#b2cbff;stroke:#b2cbff;" points="1202,75 1144,32 1124,97" stroke-width="1" stroke-miterlimit="1" stroke-linejoin="round"></polygon><polygon style="fill:#e9ffff;stroke:#e9ffff;" points="1197,521 1080,466 1116,599" stroke-width="1" stroke-miterlimit="1" stroke-linejoin="round"></polygon><polygon style="fill:#a1bbff;stroke:#a1bbff;" points="1187,-38 970,-73 1144,32" stroke-width="1" stroke-miterlimit="1" stroke-linejoin="round"></polygon><polygon style="fill:#9bb5ff;stroke:#9bb5ff;" points="1144,32 970,-73 1124,97" stroke-width="1" stroke-miterlimit="1" stroke-linejoin="round"></polygon><polygon style="fill:#bfd9ff;stroke:#bfd9ff;" points="1124,97 940,127 1083,216" stroke-width="1" stroke-miterlimit="1" stroke-linejoin="round"></polygon><polygon style="fill:#b1caff;stroke:#b1caff;" points="1124,97 970,-73 940,127" stroke-width="1" stroke-miterlimit="1" stroke-linejoin="round"></polygon><polygon style="fill:#bdd6ff;stroke:#bdd6ff;" points="1125,184 1124,97 1083,216" stroke-width="1" stroke-miterlimit="1" stroke-linejoin="round"></polygon><polygon style="fill:#fdffff;stroke:#fdffff;" points="1123,649 1116,599 1061,734" stroke-width="1" stroke-miterlimit="1" stroke-linejoin="round"></polygon><polygon style="fill:#faffff;stroke:#faffff;" points="1116,599 980,751 1061,734" stroke-width="1" stroke-miterlimit="1" stroke-linejoin="round"></polygon><polygon style="fill:#ffffff;stroke:#ffffff;" points="1116,599 1080,466 800,467" stroke-width="1" stroke-miterlimit="1" stroke-linejoin="round"></polygon><polygon style="fill:#ffffff;stroke:#ffffff;" points="1116,599 800,467 980,751" stroke-width="1" stroke-miterlimit="1" stroke-linejoin="round"></polygon><polygon style="fill:#7791f9;stroke:#7791f9;" points="970,-73 769,-73 788,-65" stroke-width="1" stroke-miterlimit="1" stroke-linejoin="round"></polygon><polygon style="fill:#fbffff;stroke:#fbffff;" points="1080,466 988,268 800,467" stroke-width="1" stroke-miterlimit="1" stroke-linejoin="round"></polygon><polygon style="fill:#c1daff;stroke:#c1daff;" points="1083,216 940,127 988,268" stroke-width="1" stroke-miterlimit="1" stroke-linejoin="round"></polygon><polygon style="fill:#afc9ff;stroke:#afc9ff;" points="970,-73 877,135 940,127" stroke-width="1" stroke-miterlimit="1" stroke-linejoin="round"></polygon><polygon style="fill:#acc5ff;stroke:#acc5ff;" points="970,-73 788,-65 877,135" stroke-width="1" stroke-miterlimit="1" stroke-linejoin="round"></polygon><polygon style="fill:#ffffff;stroke:#ffffff;" points="980,751 800,467 775,784" stroke-width="1" stroke-miterlimit="1" stroke-linejoin="round"></polygon><polygon style="fill:#e5feff;stroke:#e5feff;" points="988,268 844,205 733,346" stroke-width="1" stroke-miterlimit="1" stroke-linejoin="round"></polygon><polygon style="fill:#fbffff;stroke:#fbffff;" points="988,268 733,346 800,467" stroke-width="1" stroke-miterlimit="1" stroke-linejoin="round"></polygon><polygon style="fill:#c5deff;stroke:#c5deff;" points="988,268 914,143 844,205" stroke-width="1" stroke-miterlimit="1" stroke-linejoin="round"></polygon><polygon style="fill:#c4deff;stroke:#c4deff;" points="988,268 940,127 914,143" stroke-width="1" stroke-miterlimit="1" stroke-linejoin="round"></polygon><polygon style="fill:#a0baff;stroke:#a0baff;" points="940,127 877,135 914,143" stroke-width="1" stroke-miterlimit="1" stroke-linejoin="round"></polygon><polygon style="fill:#ffffff;stroke:#ffffff;" points="800,467 769,784 775,784" stroke-width="1" stroke-miterlimit="1" stroke-linejoin="round"></polygon><polygon style="fill:#b3cdff;stroke:#b3cdff;" points="877,135 788,-65 708,100" stroke-width="1" stroke-miterlimit="1" stroke-linejoin="round"></polygon><polygon style="fill:#a8c2ff;stroke:#a8c2ff;" points="914,143 877,135 844,205" stroke-width="1" stroke-miterlimit="1" stroke-linejoin="round"></polygon><polygon style="fill:#ffffff;stroke:#ffffff;" points="800,467 674,784 769,784" stroke-width="1" stroke-miterlimit="1" stroke-linejoin="round"></polygon><polygon style="fill:#c5deff;stroke:#c5deff;" points="877,135 708,100 844,205" stroke-width="1" stroke-miterlimit="1" stroke-linejoin="round"></polygon><polygon style="fill:#ffffff;stroke:#ffffff;" points="800,467 494,694 674,784" stroke-width="1" stroke-miterlimit="1" stroke-linejoin="round"></polygon><polygon style="fill:#fcffff;stroke:#fcffff;" points="800,467 594,412 494,694" stroke-width="1" stroke-miterlimit="1" stroke-linejoin="round"></polygon><polygon style="fill:#d1ebff;stroke:#d1ebff;" points="844,205 708,100 733,346" stroke-width="1" stroke-miterlimit="1" stroke-linejoin="round"></polygon><polygon style="fill:#8ca5ff;stroke:#8ca5ff;" points="788,-65 769,-73 708,100" stroke-width="1" stroke-miterlimit="1" stroke-linejoin="round"></polygon><polygon style="fill:#f8ffff;stroke:#f8ffff;" points="800,467 733,346 594,412" stroke-width="1" stroke-miterlimit="1" stroke-linejoin="round"></polygon><polygon style="fill:#bdd6ff;stroke:#bdd6ff;" points="733,346 708,100 555,103" stroke-width="1" stroke-miterlimit="1" stroke-linejoin="round"></polygon><polygon style="fill:#9cb6ff;stroke:#9cb6ff;" points="769,-73 555,103 708,100" stroke-width="1" stroke-miterlimit="1" stroke-linejoin="round"></polygon><polygon style="fill:#97b1ff;stroke:#97b1ff;" points="769,-73 471,-73 555,103" stroke-width="1" stroke-miterlimit="1" stroke-linejoin="round"></polygon><polygon style="fill:#d2ecff;stroke:#d2ecff;" points="733,346 555,103 594,412" stroke-width="1" stroke-miterlimit="1" stroke-linejoin="round"></polygon><polygon style="fill:#bdd7ff;stroke:#bdd7ff;" points="594,412 555,103 376,327" stroke-width="1" stroke-miterlimit="1" stroke-linejoin="round"></polygon><polygon style="fill:#e9ffff;stroke:#e9ffff;" points="674,784 494,694 508,784" stroke-width="1" stroke-miterlimit="1" stroke-linejoin="round"></polygon><polygon style="fill:#d8f1ff;stroke:#d8f1ff;" points="594,412 366,600 494,694" stroke-width="1" stroke-miterlimit="1" stroke-linejoin="round"></polygon><polygon style="fill:#c8e1ff;stroke:#c8e1ff;" points="594,412 376,327 366,600" stroke-width="1" stroke-miterlimit="1" stroke-linejoin="round"></polygon><polygon style="fill:#98b2ff;stroke:#98b2ff;" points="555,103 471,-73 267,203" stroke-width="1" stroke-miterlimit="1" stroke-linejoin="round"></polygon><polygon style="fill:#aac3ff;stroke:#aac3ff;" points="555,103 267,203 376,327" stroke-width="1" stroke-miterlimit="1" stroke-linejoin="round"></polygon><polygon style="fill:#c6dfff;stroke:#c6dfff;" points="508,784 494,694 262,749" stroke-width="1" stroke-miterlimit="1" stroke-linejoin="round"></polygon><polygon style="fill:#8ea7ff;stroke:#8ea7ff;" points="471,-73 166,-73 267,203" stroke-width="1" stroke-miterlimit="1" stroke-linejoin="round"></polygon><polygon style="fill:#bfd9ff;stroke:#bfd9ff;" points="494,694 366,600 262,749" stroke-width="1" stroke-miterlimit="1" stroke-linejoin="round"></polygon><polygon style="fill:#b1cbff;stroke:#b1cbff;" points="376,327 243,368 366,600" stroke-width="1" stroke-miterlimit="1" stroke-linejoin="round"></polygon><polygon style="fill:#8da7ff;stroke:#8da7ff;" points="267,203 166,-73 96,113" stroke-width="1" stroke-miterlimit="1" stroke-linejoin="round"></polygon><polygon style="fill:#b8d2ff;stroke:#b8d2ff;" points="366,600 247,596 262,749" stroke-width="1" stroke-miterlimit="1" stroke-linejoin="round"></polygon><polygon style="fill:#b9d3ff;stroke:#b9d3ff;" points="366,600 243,368 247,596" stroke-width="1" stroke-miterlimit="1" stroke-linejoin="round"></polygon><polygon style="fill:#9fb8ff;stroke:#9fb8ff;" points="376,327 267,203 235,304" stroke-width="1" stroke-miterlimit="1" stroke-linejoin="round"></polygon><polygon style="fill:#a5bfff;stroke:#a5bfff;" points="376,327 235,304 243,368" stroke-width="1" stroke-miterlimit="1" stroke-linejoin="round"></polygon><polygon style="fill:#9ab4ff;stroke:#9ab4ff;" points="243,368 -3,353 187,625" stroke-width="1" stroke-miterlimit="1" stroke-linejoin="round"></polygon><polygon style="fill:#a3bcff;stroke:#a3bcff;" points="247,596 243,368 187,625" stroke-width="1" stroke-miterlimit="1" stroke-linejoin="round"></polygon><polygon style="fill:#acc6ff;stroke:#acc6ff;" points="262,749 247,596 187,625" stroke-width="1" stroke-miterlimit="1" stroke-linejoin="round"></polygon><polygon style="fill:#9ab4ff;stroke:#9ab4ff;" points="267,203 96,113 235,304" stroke-width="1" stroke-miterlimit="1" stroke-linejoin="round"></polygon><polygon style="fill:#98b1ff;stroke:#98b1ff;" points="262,749 187,625 -79,784" stroke-width="1" stroke-miterlimit="1" stroke-linejoin="round"></polygon><polygon style="fill:#7b95fe;stroke:#7b95fe;" points="166,-73 62,-19 96,113" stroke-width="1" stroke-miterlimit="1" stroke-linejoin="round"></polygon><polygon style="fill:#8ba5ff;stroke:#8ba5ff;" points="235,304 96,113 21,259" stroke-width="1" stroke-miterlimit="1" stroke-linejoin="round"></polygon><polygon style="fill:#9db6ff;stroke:#9db6ff;" points="243,368 235,304 -3,353" stroke-width="1" stroke-miterlimit="1" stroke-linejoin="round"></polygon><polygon style="fill:#8ea8ff;stroke:#8ea8ff;" points="235,304 21,259 -3,353" stroke-width="1" stroke-miterlimit="1" stroke-linejoin="round"></polygon><polygon style="fill:#d2ecff;stroke:#d2ecff;" points="112,-73 4,-33 76,-52" stroke-width="1" stroke-miterlimit="1" stroke-linejoin="round"></polygon><polygon style="fill:#738df6;stroke:#738df6;" points="112,-73 -152,-73 4,-33" stroke-width="1" stroke-miterlimit="1" stroke-linejoin="round"></polygon><polygon style="fill:#91aaff;stroke:#91aaff;" points="166,-73 112,-73 62,-19" stroke-width="1" stroke-miterlimit="1" stroke-linejoin="round"></polygon><polygon style="fill:#8ca6ff;stroke:#8ca6ff;" points="187,625 -152,667 -79,784" stroke-width="1" stroke-miterlimit="1" stroke-linejoin="round"></polygon><polygon style="fill:#89a3ff;stroke:#89a3ff;" points="187,625 -131,550 -152,667" stroke-width="1" stroke-miterlimit="1" stroke-linejoin="round"></polygon><polygon style="fill:#8ba5ff;stroke:#8ba5ff;" points="187,625 -3,353 -131,550" stroke-width="1" stroke-miterlimit="1" stroke-linejoin="round"></polygon><polygon style="fill:#d3edff;stroke:#d3edff;" points="112,-73 76,-52 62,-19" stroke-width="1" stroke-miterlimit="1" stroke-linejoin="round"></polygon><polygon style="fill:#6680e9;stroke:#6680e9;" points="96,113 62,-19 33,2" stroke-width="1" stroke-miterlimit="1" stroke-linejoin="round"></polygon><polygon style="fill:#7892fb;stroke:#7892fb;" points="96,113 33,2 -152,163" stroke-width="1" stroke-miterlimit="1" stroke-linejoin="round"></polygon><polygon style="fill:#7c95fe;stroke:#7c95fe;" points="96,113 -152,163 21,259" stroke-width="1" stroke-miterlimit="1" stroke-linejoin="round"></polygon><polygon style="fill:#91abff;stroke:#91abff;" points="-3,353 -152,424 -131,550" stroke-width="1" stroke-miterlimit="1" stroke-linejoin="round"></polygon><polygon style="fill:#556fd8;stroke:#556fd8;" points="76,-52 4,-33 54,-23" stroke-width="1" stroke-miterlimit="1" stroke-linejoin="round"></polygon><polygon style="fill:#a0b9ff;stroke:#a0b9ff;" points="76,-52 54,-23 62,-19" stroke-width="1" stroke-miterlimit="1" stroke-linejoin="round"></polygon><polygon style="fill:#93acff;stroke:#93acff;" points="-79,784 -152,667 -152,692" stroke-width="1" stroke-miterlimit="1" stroke-linejoin="round"></polygon><polygon style="fill:#90a9ff;stroke:#90a9ff;" points="62,-19 54,-23 33,2" stroke-width="1" stroke-miterlimit="1" stroke-linejoin="round"></polygon><polygon style="fill:#708af3;stroke:#708af3;" points="54,-23 4,-33 33,2" stroke-width="1" stroke-miterlimit="1" stroke-linejoin="round"></polygon><polygon style="fill:#849dff;stroke:#849dff;" points="21,259 -152,163 -152,230" stroke-width="1" stroke-miterlimit="1" stroke-linejoin="round"></polygon><polygon style="fill:#6e87f0;stroke:#6e87f0;" points="33,2 4,-33 -152,163" stroke-width="1" stroke-miterlimit="1" stroke-linejoin="round"></polygon><polygon style="fill:#7b95fe;stroke:#7b95fe;" points="-3,353 -125,350 -152,424" stroke-width="1" stroke-miterlimit="1" stroke-linejoin="round"></polygon><polygon style="fill:#7e97ff;stroke:#7e97ff;" points="4,-33 -152,-73 -152,163" stroke-width="1" stroke-miterlimit="1" stroke-linejoin="round"></polygon><polygon style="fill:#748df6;stroke:#748df6;" points="21,259 -152,230 -106,307" stroke-width="1" stroke-miterlimit="1" stroke-linejoin="round"></polygon><polygon style="fill:#8ba5ff;stroke:#8ba5ff;" points="21,259 -106,307 -3,353" stroke-width="1" stroke-miterlimit="1" stroke-linejoin="round"></polygon><polygon style="fill:#89a3ff;stroke:#89a3ff;" points="-3,353 -106,307 -125,350" stroke-width="1" stroke-miterlimit="1" stroke-linejoin="round"></polygon><polygon style="fill:#5a74dd;stroke:#5a74dd;" points="-106,307 -152,230 -152,270" stroke-width="1" stroke-miterlimit="1" stroke-linejoin="round"></polygon><polygon style="fill:#2b45ae;stroke:#2b45ae;" points="-106,307 -152,270 -152,271" stroke-width="1" stroke-miterlimit="1" stroke-linejoin="round"></polygon><polygon style="fill:#718af3;stroke:#718af3;" points="-90,784 -152,692 -152,784" stroke-width="1" stroke-miterlimit="1" stroke-linejoin="round"></polygon><polygon style="fill:#cfe9ff;stroke:#cfe9ff;" points="-79,784 -152,692 -90,784" stroke-width="1" stroke-miterlimit="1" stroke-linejoin="round"></polygon><polygon style="fill:#8ca5ff;stroke:#8ca5ff;" points="-125,350 -152,356 -152,424" stroke-width="1" stroke-miterlimit="1" stroke-linejoin="round"></polygon><polygon style="fill:#5c76df;stroke:#5c76df;" points="-106,307 -152,356 -125,350" stroke-width="1" stroke-miterlimit="1" stroke-linejoin="round"></polygon><polygon style="fill:#9bb5ff;stroke:#9bb5ff;" points="-106,307 -152,271 -152,356" stroke-width="1" stroke-miterlimit="1" stroke-linejoin="round"></polygon><polygon style="fill:#89a3ff;stroke:#89a3ff;" points="-131,550 -152,424 -152,667" stroke-width="1" stroke-miterlimit="1" stroke-linejoin="round"></polygon></svg>